<?xml version="1.0" encoding="utf-8"?>
<!-- Generator: Adobe Illustrator 23.0.5, SVG Export Plug-In . SVG Version: 6.00 Build 0)  -->
<svg version="1.1" id="Layer_1" xmlns="http://www.w3.org/2000/svg" xmlns:xlink="http://www.w3.org/1999/xlink" x="0px" y="0px"
	 viewBox="0 0 1316.7 386" style="enable-background:new 0 0 1316.7 386;" xml:space="preserve">
<style type="text/css">
	.st0{fill:#0E2735;}
	.st1{fill:url(#SVGID_1_);}
	.st2{fill:url(#SVGID_2_);}
	.st3{fill:#FFFFFF;}
	.st4{fill:none;stroke:#000000;stroke-miterlimit:10;}
	.st5{fill:url(#SVGID_3_);}
	.st6{fill:url(#SVGID_4_);}
	.st7{fill:url(#SVGID_5_);}
	.st8{fill:url(#SVGID_6_);}
	.st9{fill:url(#SVGID_7_);}
	.st10{fill:url(#SVGID_8_);}
	.st11{fill:url(#SVGID_9_);}
	.st12{fill:url(#SVGID_10_);}
	.st13{fill:url(#SVGID_11_);}
	.st14{fill:url(#SVGID_12_);}
	.st15{fill:url(#SVGID_13_);}
	.st16{fill:url(#SVGID_14_);}
	.st17{fill:url(#SVGID_15_);}
	.st18{fill:url(#SVGID_16_);}
	.st19{fill:url(#SVGID_17_);}
	.st20{fill:url(#SVGID_18_);}
	.st21{fill:url(#SVGID_19_);}
	.st22{fill:url(#SVGID_20_);}
	.st23{fill:url(#SVGID_21_);}
	.st24{fill:url(#SVGID_22_);}
	.st25{fill:url(#SVGID_23_);}
	.st26{fill:url(#SVGID_24_);}
	.st27{fill:url(#SVGID_25_);}
	.st28{fill:url(#SVGID_26_);}
	.st29{fill:url(#SVGID_27_);}
	.st30{fill:url(#SVGID_28_);}
	.st31{fill:url(#SVGID_29_);}
	.st32{fill:url(#SVGID_30_);}
	.st33{fill:url(#SVGID_31_);}
	.st34{fill:url(#SVGID_32_);}
	.st35{fill:url(#SVGID_33_);}
	.st36{fill:url(#SVGID_34_);}
	.st37{fill:url(#SVGID_35_);}
	.st38{fill:url(#SVGID_36_);}
	.st39{fill:url(#SVGID_37_);}
	.st40{fill:url(#SVGID_38_);}
	.st41{fill:url(#SVGID_39_);}
	.st42{fill:url(#SVGID_40_);}
	.st43{fill:url(#SVGID_41_);}
	.st44{fill:url(#SVGID_42_);}
	.st45{fill:url(#SVGID_43_);}
	.st46{fill:url(#SVGID_44_);}
	.st47{fill:url(#SVGID_45_);}
	.st48{fill:url(#SVGID_46_);}
	.st49{font-family:'Inter-Bold';}
	.st50{font-size:116.2081px;}
	.st51{fill:#BD2025;}
</style>
<g>
	<ellipse class="st0" cx="258.5" cy="200" rx="113.8" ry="108.8"/>
	<radialGradient id="SVGID_1_" cx="258.5403" cy="199.7358" r="95.8862" gradientUnits="userSpaceOnUse">
		<stop  offset="0.838" style="stop-color:#123345"/>
		<stop  offset="0.8739" style="stop-color:#112F40"/>
		<stop  offset="0.916" style="stop-color:#0D2532"/>
		<stop  offset="0.961" style="stop-color:#07141A"/>
		<stop  offset="1" style="stop-color:#000000"/>
	</radialGradient>
	<ellipse class="st1" cx="258.5" cy="199.7" rx="96.7" ry="95.1"/>
	<radialGradient id="SVGID_2_" cx="257.5764" cy="198.9758" r="100.5692" gradientUnits="userSpaceOnUse">
		<stop  offset="0" style="stop-color:#000000"/>
		<stop  offset="0.7299" style="stop-color:#000000;stop-opacity:0"/>
	</radialGradient>
	<circle class="st2" cx="257.6" cy="199" r="84.4"/>
	<g>
		<path class="st3" d="M181.8,186.8l6.9,5.4c0,0-9.4,19.8-6.9,43.1C181.8,235.3,174.9,213.9,181.8,186.8z"/>
		<path class="st3" d="M254.8,122.5l1.6,65.5c0,0-25.8-12.9-30.7-30.8c-0.8-2.8-1.5-5.7-2-8.6c-0.3-1.8-0.6-3.7-0.7-5.6
			c0-1.1,0-2.2,0.1-3.2c0-0.3,0.1-0.6,0.2-0.8c0.3-0.9,1-1.7,1.7-2.4c0.4-0.4,0.8-0.8,1.2-1.2c1.1-1.1,2.3-2.1,3.5-3.1
			c1.6-1.3,3.2-2.4,4.9-3.5c2-1.2,4.1-2.3,6.2-3.2c2.4-1,4.9-1.8,7.5-2.3C250.5,122.8,252.6,122.6,254.8,122.5z"/>
		<path class="st3" d="M310.6,140.3c0,0-3.6,25.5-11.2,35.2c-7.6,9.8-28.7,18.6-33.4,24.2c-4.8,5.5-8.4,5.1-8.4,5.1
			s-3.7,0.4-8.4-5.1c-4.8-5.5-25.9-14.4-33.4-24.2c-7.6-9.8-11.2-35.2-11.2-35.2s7-5.9,8.6-8.3c1.6-2.4,9.7-10.5,16.2-14.3
			c-0.8,0.7-15.7,12.8-12.7,31.8c3.1,19.5,22,34.3,22,34.3s17.9,11.4,19,13.2c1.1-1.8,19-13.2,19-13.2s18.9-14.8,22-34.3
			c3-19-11.9-31.1-12.7-31.8c6.5,3.9,14.6,11.9,16.2,14.3C303.6,134.4,310.6,140.3,310.6,140.3z"/>
		<path class="st3" d="M200.6,150.7c0,0-0.6,6.9,2.9,15.4c0,0-6.6,8-10,16.8l-8.4-5.2C185.1,177.7,195.3,156.3,200.6,150.7z"/>
		<path class="st3" d="M206.6,171.9c0,0,0.5,4.9,2.2,6.6c0,0-2.7-0.6-4.2,1.7c-1.6,2.2-4.6,6.6-4.6,6.6s0.6-4.9,2.5-7.4
			C204.3,176.8,206.6,171.9,206.6,171.9z"/>
		<path class="st3" d="M208.8,184.1l-0.6,12.7c0,0-7.3,7.1-7.7,17.9l-8.2-6.2c0,0,3.8-10.9,4-15.1
			C196.3,193.4,205,188.8,208.8,184.1z"/>
		<path class="st3" d="M189.6,216.3l9.4,6.8c0,0-5.6,7.4-1.3,39.3C197.7,262.5,189.1,241.1,189.6,216.3z"/>
		<path class="st3" d="M214.1,184.1c0,0,4.1,3.8,6.1,9.6c2,5.8,10.9,12.4,12.9,13.3c2,0.9,9.3,7,9.7,10.2c0.4,3.3,0.6,35.7,2.6,39.8
			c0,0-6.7-7.7-10.8-23.6c-4.1-15.9-16.2-23.5-17.5-28.5c-1.4-5-0.8-6.1-1.4-8.5C215,194,213.9,187.2,214.1,184.1z"/>
		<path class="st3" d="M212.6,203.4c0,0,1,10.8,3.9,15.9c0,0-5.1,8.9-3.9,19.2c0,0-2.5-4.9-7-5.1v-14.8
			C205.6,218.6,209.7,205.8,212.6,203.4z"/>
		<path class="st3" d="M206.3,240.3c0,0,2.1,1.9,6.2,2.7c0,0-1.3,14,4.3,29.4C216.8,272.4,206.9,258.3,206.3,240.3z"/>
		<path class="st3" d="M260.4,122.5l-1.6,65.5c0,0,25.8-12.9,30.7-30.8c0.8-2.8,1.5-5.7,2-8.6c0.3-1.8,0.6-3.7,0.7-5.6
			c0-1.1,0-2.2-0.1-3.2c0-0.3-0.1-0.6-0.2-0.8c-0.3-0.9-1-1.7-1.7-2.4c-0.4-0.4-0.8-0.8-1.2-1.2c-1.1-1.1-2.3-2.1-3.5-3.1
			c-1.6-1.3-3.2-2.4-4.9-3.5c-2-1.2-4.1-2.3-6.2-3.2c-2.4-1-4.9-1.8-7.5-2.3C264.7,122.8,262.6,122.6,260.4,122.5z"/>
		<path class="st3" d="M314.5,150.7c0,0,0.6,6.9-2.9,15.4c0,0,6.6,8,10,16.8l8.4-5.2C330,177.7,319.8,156.3,314.5,150.7z"/>
		<path class="st3" d="M333.3,186.8l-6.9,5.4c0,0,9.4,19.8,6.9,43.1C333.3,235.3,340.3,213.9,333.3,186.8z"/>
		<path class="st3" d="M308.5,171.9c0,0-0.5,4.9-2.2,6.6c0,0,2.7-0.6,4.2,1.7c1.6,2.2,4.6,6.6,4.6,6.6s-0.6-4.9-2.5-7.4
			C310.9,176.8,308.5,171.9,308.5,171.9z"/>
		<path class="st3" d="M306.4,184.1l0.6,12.7c0,0,7.3,7.1,7.7,17.9l8.2-6.2c0,0-3.8-10.9-4-15.1
			C318.9,193.4,310.1,188.8,306.4,184.1z"/>
		<path class="st3" d="M325.6,216.3l-9.4,6.8c0,0,5.6,7.4,1.3,39.3C317.5,262.5,326.1,241.1,325.6,216.3z"/>
		<path class="st3" d="M301.1,184.1c0,0-4.1,3.8-6.1,9.6c-2,5.8-10.9,12.4-12.9,13.3s-9.3,7-9.7,10.2c-0.4,3.3-0.6,35.7-2.6,39.8
			c0,0,6.7-7.7,10.8-23.6c4.1-15.9,16.2-23.5,17.5-28.5c1.4-5,0.8-6.1,1.4-8.5C300.2,194,301.2,187.2,301.1,184.1z"/>
		<path class="st3" d="M302.6,203.4c0,0-1,10.8-3.9,15.9c0,0,5.1,8.9,3.9,19.2c0,0,2.5-4.9,7-5.1v-14.8
			C309.6,218.6,305.5,205.8,302.6,203.4z"/>
		<path class="st3" d="M308.9,240.3c0,0-2.1,1.9-6.2,2.7c0,0,1.3,14-4.3,29.4C298.4,272.4,308.2,258.3,308.9,240.3z"/>
		<path class="st3" d="M266.8,210.7c-0.2,0.3-1.6,2.3-1.8,4.9c-0.2,2.8-1.8,44.6-1.8,44.6h-11.4c0,0-1.5-41.7-1.8-44.6
			c-0.2-2.6-1.6-4.6-1.8-4.9c2,2.4,9.2,1.9,9.2,1.9S264.8,213.2,266.8,210.7z"/>
	</g>
	<g>
		<path class="st3" d="M209.5,117.3c-13.9,8.1-25.5,19.5-33.8,33.1l-3.5-2c8.6-14.2,20.8-26.1,35.3-34.6L209.5,117.3z"/>
		<path class="st3" d="M257.3,100.2v4c-16.5,0.2-32,4.5-45.5,11.9l-2-3.5C223.9,104.8,240,100.4,257.3,100.2z"/>
		<path class="st3" d="M307.4,112.6l-2,3.5c-13.5-7.4-29-11.7-45.5-11.9v-4C277.1,100.4,293.3,104.8,307.4,112.6z"/>
		<path class="st3" d="M345,148.4l-3.5,2c-8.3-13.6-19.9-25-33.8-33.1l2-3.5C324.2,122.3,336.4,134.2,345,148.4z"/>
		<path class="st3" d="M174.3,152.7c-7.8,13.6-12.3,29.3-12.4,45.9h-4.1c0.1-17.4,4.8-33.8,12.9-48L174.3,152.7z"/>
		<path class="st3" d="M174.9,246.8l-3.5,2c-8.3-14.1-13.1-30.3-13.5-47.6h4.1C162.3,217.8,167,233.4,174.9,246.8z"/>
		<path class="st3" d="M210.1,281.6l-2,3.5c-14.4-8.3-26.6-19.9-35.3-33.9l3.5-2C184.6,262.5,196.2,273.7,210.1,281.6z"/>
		<path class="st3" d="M257.3,294.4v4c-17-0.2-33-4.6-46.9-12.1l2-3.5C225.7,290,241,294.2,257.3,294.4z"/>
		<path class="st3" d="M306.8,286.3c-14,7.5-29.9,11.9-46.9,12.1v-4c16.3-0.2,31.5-4.4,44.9-11.5L306.8,286.3z"/>
		<path class="st3" d="M344.4,251.1c-8.7,14-20.9,25.7-35.3,33.9l-2-3.5c13.8-7.9,25.4-19.1,33.8-32.4L344.4,251.1z"/>
		<path class="st3" d="M359.3,201.2c-0.3,17.3-5.2,33.6-13.5,47.6l-3.5-2c7.9-13.5,12.6-29,12.9-45.6H359.3z"/>
		<path class="st3" d="M359.3,198.6h-4.1c-0.1-16.7-4.6-32.3-12.4-45.9l3.5-2C354.5,164.8,359.2,181.2,359.3,198.6z"/>
	</g>
	<path class="st4" d="M248.3,212.7C248.3,212.8,248.3,212.8,248.3,212.7"/>
	<g>
		<linearGradient id="SVGID_3_" gradientUnits="userSpaceOnUse" x1="185.9521" y1="264.1859" x2="180.5905" y2="120.9519">
			<stop  offset="0" style="stop-color:#BD2025"/>
			<stop  offset="1" style="stop-color:#F2808E"/>
		</linearGradient>
		<path class="st5" d="M181.8,188.8l6.9,5.4c0,0-9.4,19.8-6.9,43.1C181.8,237.4,174.9,215.9,181.8,188.8z"/>
		<linearGradient id="SVGID_4_" gradientUnits="userSpaceOnUse" x1="243.6584" y1="262.0258" x2="238.2967" y2="118.7918">
			<stop  offset="0" style="stop-color:#BD2025"/>
			<stop  offset="1" style="stop-color:#F2808E"/>
		</linearGradient>
		<path class="st6" d="M254.8,124.5l1.6,65.5c0,0-25.8-12.9-30.7-30.8c-0.8-2.8-1.5-5.7-2-8.6c-0.3-1.8-0.6-3.7-0.7-5.6
			c0-1.1,0-2.2,0.1-3.2c0-0.3,0.1-0.6,0.2-0.8c0.3-0.9,1-1.7,1.7-2.4c0.4-0.4,0.8-0.8,1.2-1.2c1.1-1.1,2.3-2.1,3.5-3.1
			c1.6-1.3,3.2-2.4,4.9-3.5c2-1.2,4.1-2.3,6.2-3.2c2.4-1,4.9-1.8,7.5-2.3C250.5,124.9,252.6,124.6,254.8,124.5z"/>
		<linearGradient id="SVGID_5_" gradientUnits="userSpaceOnUse" x1="262.0295" y1="261.3381" x2="256.6678" y2="118.1041">
			<stop  offset="0" style="stop-color:#BD2025"/>
			<stop  offset="1" style="stop-color:#F2808E"/>
		</linearGradient>
		<path class="st7" d="M310.6,142.4c0,0-3.6,25.5-11.2,35.2c-7.6,9.8-28.7,18.6-33.4,24.2c-4.8,5.5-8.4,5.1-8.4,5.1
			s-3.7,0.4-8.4-5.1c-4.8-5.5-25.9-14.4-33.4-24.2c-7.6-9.8-11.2-35.2-11.2-35.2s7-5.9,8.6-8.3c1.6-2.4,9.7-10.5,16.2-14.3
			c-0.8,0.7-15.7,12.8-12.7,31.7c3.1,19.5,22,34.3,22,34.3s17.9,11.4,19,13.2c1.1-1.8,19-13.2,19-13.2s18.9-14.8,22-34.3
			c3-19-11.9-31.1-12.7-31.7c6.5,3.9,14.6,11.9,16.2,14.3C303.6,136.5,310.6,142.4,310.6,142.4z"/>
		<linearGradient id="SVGID_6_" gradientUnits="userSpaceOnUse" x1="197.6592" y1="263.7477" x2="192.2975" y2="120.5137">
			<stop  offset="0" style="stop-color:#BD2025"/>
			<stop  offset="1" style="stop-color:#F2808E"/>
		</linearGradient>
		<path class="st8" d="M200.6,152.8c0,0-0.6,6.9,2.9,15.4c0,0-6.6,8-10,16.8l-8.4-5.2C185.1,179.8,195.3,158.3,200.6,152.8z"/>
		<linearGradient id="SVGID_7_" gradientUnits="userSpaceOnUse" x1="207.2975" y1="263.3869" x2="201.9358" y2="120.1529">
			<stop  offset="0" style="stop-color:#BD2025"/>
			<stop  offset="1" style="stop-color:#F2808E"/>
		</linearGradient>
		<path class="st9" d="M206.6,174c0,0,0.5,4.9,2.2,6.6c0,0-2.7-0.6-4.2,1.7c-1.6,2.2-4.6,6.6-4.6,6.6s0.6-4.9,2.5-7.4
			C204.3,178.9,206.6,174,206.6,174z"/>
		<linearGradient id="SVGID_8_" gradientUnits="userSpaceOnUse" x1="202.9955" y1="263.548" x2="197.6338" y2="120.3139">
			<stop  offset="0" style="stop-color:#BD2025"/>
			<stop  offset="1" style="stop-color:#F2808E"/>
		</linearGradient>
		<path class="st10" d="M208.8,186.2l-0.6,12.7c0,0-7.3,7.1-7.7,17.9l-8.2-6.2c0,0,3.8-10.9,4-15.1
			C196.3,195.4,205,190.9,208.8,186.2z"/>
		<linearGradient id="SVGID_9_" gradientUnits="userSpaceOnUse" x1="195.7424" y1="263.8195" x2="190.3807" y2="120.5854">
			<stop  offset="0" style="stop-color:#BD2025"/>
			<stop  offset="1" style="stop-color:#F2808E"/>
		</linearGradient>
		<path class="st11" d="M189.6,218.4l9.4,6.8c0,0-5.6,7.4-1.3,39.3C197.7,264.5,189.1,243.1,189.6,218.4z"/>
		<linearGradient id="SVGID_10_" gradientUnits="userSpaceOnUse" x1="231.19" y1="262.4926" x2="225.8283" y2="119.2585">
			<stop  offset="0" style="stop-color:#BD2025"/>
			<stop  offset="1" style="stop-color:#F2808E"/>
		</linearGradient>
		<path class="st12" d="M214.1,186.2c0,0,4.1,3.8,6.1,9.6c2,5.8,10.9,12.4,12.9,13.3c2,0.9,9.3,7,9.7,10.2
			c0.4,3.3,0.6,35.7,2.6,39.8c0,0-6.7-7.7-10.8-23.6c-4.1-15.9-16.2-23.5-17.5-28.5c-1.4-5-0.8-6.1-1.4-8.5
			C215,196,213.9,189.2,214.1,186.2z"/>
		<linearGradient id="SVGID_11_" gradientUnits="userSpaceOnUse" x1="212.3251" y1="263.1987" x2="206.9634" y2="119.9647">
			<stop  offset="0" style="stop-color:#BD2025"/>
			<stop  offset="1" style="stop-color:#F2808E"/>
		</linearGradient>
		<path class="st13" d="M212.6,205.4c0,0,1,10.8,3.9,15.9c0,0-5.1,8.9-3.9,19.2c0,0-2.5-4.9-7-5.1v-14.8
			C205.6,220.7,209.7,207.8,212.6,205.4z"/>
		<linearGradient id="SVGID_12_" gradientUnits="userSpaceOnUse" x1="211.6928" y1="263.2224" x2="206.3311" y2="119.9883">
			<stop  offset="0" style="stop-color:#BD2025"/>
			<stop  offset="1" style="stop-color:#F2808E"/>
		</linearGradient>
		<path class="st14" d="M206.3,242.4c0,0,2.1,1.9,6.2,2.7c0,0-1.3,14,4.3,29.4C216.8,274.4,206.9,260.4,206.3,242.4z"/>
		<linearGradient id="SVGID_13_" gradientUnits="userSpaceOnUse" x1="278.969" y1="260.704" x2="273.6073" y2="117.47">
			<stop  offset="0" style="stop-color:#BD2025"/>
			<stop  offset="1" style="stop-color:#F2808E"/>
		</linearGradient>
		<path class="st15" d="M260.4,124.5l-1.6,65.5c0,0,25.8-12.9,30.7-30.8c0.8-2.8,1.5-5.7,2-8.6c0.3-1.8,0.6-3.7,0.7-5.6
			c0-1.1,0-2.2-0.1-3.2c0-0.3-0.1-0.6-0.2-0.8c-0.3-0.9-1-1.7-1.7-2.4c-0.4-0.4-0.8-0.8-1.2-1.2c-1.1-1.1-2.3-2.1-3.5-3.1
			c-1.6-1.3-3.2-2.4-4.9-3.5c-2-1.2-4.1-2.3-6.2-3.2c-2.4-1-4.9-1.8-7.5-2.3C264.7,124.9,262.6,124.6,260.4,124.5z"/>
		<linearGradient id="SVGID_14_" gradientUnits="userSpaceOnUse" x1="324.0353" y1="259.0171" x2="318.6736" y2="115.783">
			<stop  offset="0" style="stop-color:#BD2025"/>
			<stop  offset="1" style="stop-color:#F2808E"/>
		</linearGradient>
		<path class="st16" d="M314.5,152.8c0,0,0.6,6.9-2.9,15.4c0,0,6.6,8,10,16.8l8.4-5.2C330,179.8,319.8,158.3,314.5,152.8z"/>
		<linearGradient id="SVGID_15_" gradientUnits="userSpaceOnUse" x1="333.5127" y1="258.6623" x2="328.151" y2="115.4282">
			<stop  offset="0" style="stop-color:#BD2025"/>
			<stop  offset="1" style="stop-color:#F2808E"/>
		</linearGradient>
		<path class="st17" d="M333.3,188.8l-6.9,5.4c0,0,9.4,19.8,6.9,43.1C333.3,237.4,340.3,215.9,333.3,188.8z"/>
		<linearGradient id="SVGID_16_" gradientUnits="userSpaceOnUse" x1="313.5953" y1="259.4079" x2="308.2336" y2="116.1738">
			<stop  offset="0" style="stop-color:#BD2025"/>
			<stop  offset="1" style="stop-color:#F2808E"/>
		</linearGradient>
		<path class="st18" d="M308.5,174c0,0-0.5,4.9-2.2,6.6c0,0,2.7-0.6,4.2,1.7c1.6,2.2,4.6,6.6,4.6,6.6s-0.6-4.9-2.5-7.4
			C310.9,178.9,308.5,174,308.5,174z"/>
		<linearGradient id="SVGID_17_" gradientUnits="userSpaceOnUse" x1="316.8785" y1="259.285" x2="311.5168" y2="116.0509">
			<stop  offset="0" style="stop-color:#BD2025"/>
			<stop  offset="1" style="stop-color:#F2808E"/>
		</linearGradient>
		<path class="st19" d="M306.4,186.2l0.6,12.7c0,0,7.3,7.1,7.7,17.9l8.2-6.2c0,0-3.8-10.9-4-15.1
			C318.9,195.4,310.1,190.9,306.4,186.2z"/>
		<linearGradient id="SVGID_18_" gradientUnits="userSpaceOnUse" x1="322.1944" y1="259.086" x2="316.8327" y2="115.8519">
			<stop  offset="0" style="stop-color:#BD2025"/>
			<stop  offset="1" style="stop-color:#F2808E"/>
		</linearGradient>
		<path class="st20" d="M325.6,218.4l-9.4,6.8c0,0,5.6,7.4,1.3,39.3C317.5,264.5,326.1,243.1,325.6,218.4z"/>
		<linearGradient id="SVGID_19_" gradientUnits="userSpaceOnUse" x1="286.8445" y1="260.4092" x2="281.4828" y2="117.1752">
			<stop  offset="0" style="stop-color:#BD2025"/>
			<stop  offset="1" style="stop-color:#F2808E"/>
		</linearGradient>
		<path class="st21" d="M301.1,186.2c0,0-4.1,3.8-6.1,9.6c-2,5.8-10.9,12.4-12.9,13.3s-9.3,7-9.7,10.2c-0.4,3.3-0.6,35.7-2.6,39.8
			c0,0,6.7-7.7,10.8-23.6c4.1-15.9,16.2-23.5,17.5-28.5c1.4-5,0.8-6.1,1.4-8.5C300.2,196,301.2,189.2,301.1,186.2z"/>
		<linearGradient id="SVGID_20_" gradientUnits="userSpaceOnUse" x1="305.578" y1="259.708" x2="300.2163" y2="116.4739">
			<stop  offset="0" style="stop-color:#BD2025"/>
			<stop  offset="1" style="stop-color:#F2808E"/>
		</linearGradient>
		<path class="st22" d="M302.6,205.4c0,0-1,10.8-3.9,15.9c0,0,5.1,8.9,3.9,19.2c0,0,2.5-4.9,7-5.1v-14.8
			C309.6,220.7,305.5,207.8,302.6,205.4z"/>
		<linearGradient id="SVGID_21_" gradientUnits="userSpaceOnUse" x1="303.6915" y1="259.7786" x2="298.3298" y2="116.5445">
			<stop  offset="0" style="stop-color:#BD2025"/>
			<stop  offset="1" style="stop-color:#F2808E"/>
		</linearGradient>
		<path class="st23" d="M308.9,242.4c0,0-2.1,1.9-6.2,2.7c0,0,1.3,14-4.3,29.4C298.4,274.4,308.2,260.4,308.9,242.4z"/>
		<linearGradient id="SVGID_22_" gradientUnits="userSpaceOnUse" x1="259.3938" y1="261.4368" x2="254.0321" y2="118.2028">
			<stop  offset="0" style="stop-color:#BD2025"/>
			<stop  offset="1" style="stop-color:#F2808E"/>
		</linearGradient>
		<path class="st24" d="M266.8,212.8c-0.2,0.3-1.6,2.3-1.8,4.9c-0.2,2.8-1.8,44.6-1.8,44.6h-11.4c0,0-1.5-41.7-1.8-44.6
			c-0.2-2.6-1.6-4.6-1.8-4.9c2,2.4,9.2,1.9,9.2,1.9S264.8,215.2,266.8,212.8z"/>
	</g>
	<path class="st4" d="M266.8,212.8C266.8,212.8,266.8,212.8,266.8,212.8"/>
	<g>
		<linearGradient id="SVGID_23_" gradientUnits="userSpaceOnUse" x1="197.5142" y1="313.4332" x2="178.3653" y2="41.5183">
			<stop  offset="0" style="stop-color:#BD2025"/>
			<stop  offset="1" style="stop-color:#F2808E"/>
		</linearGradient>
		<path class="st25" d="M207.5,114.8c-14.5,8.4-26.7,20.3-35.3,34.5l-10.6-6.1c10-15.6,24-28.5,40.6-37.6L207.5,114.8z"/>
		<linearGradient id="SVGID_24_" gradientUnits="userSpaceOnUse" x1="245.8019" y1="310.0327" x2="226.653" y2="38.1178">
			<stop  offset="0" style="stop-color:#BD2025"/>
			<stop  offset="1" style="stop-color:#F2808E"/>
		</linearGradient>
		<path class="st26" d="M257.3,91.3v9.9c-17.2,0.2-33.4,4.7-47.5,12.4l-5.3-9.2C220.2,96.2,238.2,91.5,257.3,91.3z"/>
		<linearGradient id="SVGID_25_" gradientUnits="userSpaceOnUse" x1="300.6211" y1="306.1721" x2="281.4722" y2="34.2573">
			<stop  offset="0" style="stop-color:#BD2025"/>
			<stop  offset="1" style="stop-color:#F2808E"/>
		</linearGradient>
		<path class="st27" d="M312.7,104.3l-5.3,9.2c-14.1-7.7-30.3-12.2-47.5-12.4v-9.9C279,91.5,297,96.2,312.7,104.3z"/>
		<linearGradient id="SVGID_26_" gradientUnits="userSpaceOnUse" x1="344.8834" y1="303.0551" x2="325.7345" y2="31.1402">
			<stop  offset="0" style="stop-color:#BD2025"/>
			<stop  offset="1" style="stop-color:#F2808E"/>
		</linearGradient>
		<path class="st28" d="M355.6,143.2l-10.6,6.1c-8.6-14.2-20.8-26.1-35.3-34.5l5.3-9.3C331.6,114.7,345.6,127.6,355.6,143.2z"/>
		<linearGradient id="SVGID_27_" gradientUnits="userSpaceOnUse" x1="167.675" y1="315.5345" x2="148.5261" y2="43.6197">
			<stop  offset="0" style="stop-color:#BD2025"/>
			<stop  offset="1" style="stop-color:#F2808E"/>
		</linearGradient>
		<path class="st29" d="M170.8,151.5c-8.1,14.1-12.8,30.5-12.9,47.8h-13.1c0.1-19.8,5.8-38.3,15.5-54.3l-0.2,0.3L170.8,151.5z"/>
		<linearGradient id="SVGID_28_" gradientUnits="userSpaceOnUse" x1="164.3675" y1="315.7675" x2="145.2186" y2="43.8526">
			<stop  offset="0" style="stop-color:#BD2025"/>
			<stop  offset="1" style="stop-color:#F2808E"/>
		</linearGradient>
		<path class="st30" d="M171.4,249.5l-10.6,6.1c-9.8-15.7-15.6-34.1-16-53.6h13.1C158.2,219.3,163.1,235.5,171.4,249.5z"/>
		<linearGradient id="SVGID_29_" gradientUnits="userSpaceOnUse" x1="188.1098" y1="314.0955" x2="168.9609" y2="42.1806">
			<stop  offset="0" style="stop-color:#BD2025"/>
			<stop  offset="1" style="stop-color:#F2808E"/>
		</linearGradient>
		<path class="st31" d="M208.1,285.6l-5.3,9.2h0c-16.5-8.9-30.5-21.6-40.5-37l10.5-6.1C181.5,265.7,193.6,277.4,208.1,285.6z"/>
		<linearGradient id="SVGID_30_" gradientUnits="userSpaceOnUse" x1="232.1033" y1="310.9973" x2="212.9543" y2="39.0825">
			<stop  offset="0" style="stop-color:#BD2025"/>
			<stop  offset="1" style="stop-color:#F2808E"/>
		</linearGradient>
		<path class="st32" d="M257.3,298.9v9.9c-18.9-0.2-36.6-4.8-52.2-12.8l5.3-9.2C224.3,294.4,240.3,298.7,257.3,298.9z"/>
		<linearGradient id="SVGID_31_" gradientUnits="userSpaceOnUse" x1="286.3349" y1="307.172" x2="267.186" y2="35.2571">
			<stop  offset="0" style="stop-color:#BD2025"/>
			<stop  offset="1" style="stop-color:#F2808E"/>
		</linearGradient>
		<path class="st33" d="M312.1,296.1c-15.6,8-33.4,12.6-52.2,12.8v-9.9c17-0.2,33-4.5,46.9-12L312.1,296.1z"/>
		<linearGradient id="SVGID_32_" gradientUnits="userSpaceOnUse" x1="334.2849" y1="303.8015" x2="315.136" y2="31.8866">
			<stop  offset="0" style="stop-color:#BD2025"/>
			<stop  offset="1" style="stop-color:#F2808E"/>
		</linearGradient>
		<path class="st34" d="M355,257.9c-10.1,15.3-24,28.1-40.5,37h0l-5.3-9.2c14.4-8.2,26.6-19.9,35.3-33.8L355,257.9z"/>
		<linearGradient id="SVGID_33_" gradientUnits="userSpaceOnUse" x1="364.3968" y1="301.6809" x2="345.2479" y2="29.766">
			<stop  offset="0" style="stop-color:#BD2025"/>
			<stop  offset="1" style="stop-color:#F2808E"/>
		</linearGradient>
		<path class="st35" d="M372.3,202c-0.4,19.6-6.1,37.9-16,53.6l-10.6-6.1c8.3-14,13.1-30.2,13.5-47.5H372.3z"/>
		<linearGradient id="SVGID_34_" gradientUnits="userSpaceOnUse" x1="368.3209" y1="301.4046" x2="349.1719" y2="29.4897">
			<stop  offset="0" style="stop-color:#BD2025"/>
			<stop  offset="1" style="stop-color:#F2808E"/>
		</linearGradient>
		<path class="st36" d="M372.3,199.4h-13.1c-0.1-17.4-4.8-33.7-12.9-47.8l10.6-6.1l-0.2-0.3C366.6,161.1,372.2,179.6,372.3,199.4z"
			/>
	</g>
	<g>
		<linearGradient id="SVGID_35_" gradientUnits="userSpaceOnUse" x1="192.7212" y1="94.7478" x2="186.5935" y2="220.3648">
			<stop  offset="0.224" style="stop-color:#869CA8"/>
			<stop  offset="0.8587" style="stop-color:#324E5F"/>
		</linearGradient>
		<path class="st37" d="M209.5,118.3c-13.9,8-25.5,19.4-33.8,33l-3.5-2c8.6-14.2,20.8-26.1,35.3-34.5L209.5,118.3z"/>
		<linearGradient id="SVGID_36_" gradientUnits="userSpaceOnUse" x1="234.1304" y1="96.7677" x2="228.0028" y2="222.3848">
			<stop  offset="0.224" style="stop-color:#869CA8"/>
			<stop  offset="0.8587" style="stop-color:#324E5F"/>
		</linearGradient>
		<path class="st38" d="M257.3,101.2v4c-16.5,0.2-32,4.5-45.5,11.8l-2-3.5C223.9,105.8,240,101.4,257.3,101.2z"/>
		<linearGradient id="SVGID_37_" gradientUnits="userSpaceOnUse" x1="284.0346" y1="99.2021" x2="277.907" y2="224.8191">
			<stop  offset="0.224" style="stop-color:#869CA8"/>
			<stop  offset="0.8587" style="stop-color:#324E5F"/>
		</linearGradient>
		<path class="st39" d="M307.4,113.5l-2,3.5c-13.5-7.4-29-11.6-45.5-11.8v-4C277.1,101.4,293.3,105.8,307.4,113.5z"/>
		<linearGradient id="SVGID_38_" gradientUnits="userSpaceOnUse" x1="327.9195" y1="101.3428" x2="321.7918" y2="226.9598">
			<stop  offset="0.224" style="stop-color:#869CA8"/>
			<stop  offset="0.8587" style="stop-color:#324E5F"/>
		</linearGradient>
		<path class="st40" d="M345,149.3l-3.5,2c-8.3-13.6-19.9-25-33.8-33l2-3.5C324.2,123.2,336.4,135.1,345,149.3z"/>
		<linearGradient id="SVGID_39_" gradientUnits="userSpaceOnUse" x1="170.098" y1="93.6442" x2="163.9703" y2="219.2612">
			<stop  offset="0.224" style="stop-color:#869CA8"/>
			<stop  offset="0.8587" style="stop-color:#324E5F"/>
		</linearGradient>
		<path class="st41" d="M174.3,153.6c-7.8,13.6-12.3,29.2-12.4,45.8h-4.1c0.1-17.4,4.8-33.7,12.9-47.8L174.3,153.6z"/>
		<linearGradient id="SVGID_40_" gradientUnits="userSpaceOnUse" x1="172.7809" y1="93.7751" x2="166.6533" y2="219.3921">
			<stop  offset="0.224" style="stop-color:#869CA8"/>
			<stop  offset="0.8587" style="stop-color:#324E5F"/>
		</linearGradient>
		<path class="st42" d="M174.9,247.5l-3.5,2c-8.3-14-13.1-30.2-13.5-47.5h4.1C162.3,218.6,167,234.1,174.9,247.5z"/>
		<linearGradient id="SVGID_41_" gradientUnits="userSpaceOnUse" x1="199.7847" y1="95.0923" x2="193.657" y2="220.7094">
			<stop  offset="0.224" style="stop-color:#869CA8"/>
			<stop  offset="0.8587" style="stop-color:#324E5F"/>
		</linearGradient>
		<path class="st43" d="M210.1,282.1l-2,3.5c-14.4-8.2-26.6-19.9-35.3-33.8l3.5-2C184.6,263.1,196.2,274.2,210.1,282.1z"/>
		<linearGradient id="SVGID_42_" gradientUnits="userSpaceOnUse" x1="243.3512" y1="97.2175" x2="237.2235" y2="222.8345">
			<stop  offset="0.224" style="stop-color:#869CA8"/>
			<stop  offset="0.8587" style="stop-color:#324E5F"/>
		</linearGradient>
		<path class="st44" d="M257.3,294.9v4c-17-0.2-33-4.5-46.9-12l2-3.5C225.7,290.6,241,294.7,257.3,294.9z"/>
		<linearGradient id="SVGID_43_" gradientUnits="userSpaceOnUse" x1="292.6767" y1="99.6236" x2="286.5491" y2="225.2407">
			<stop  offset="0.224" style="stop-color:#869CA8"/>
			<stop  offset="0.8587" style="stop-color:#324E5F"/>
		</linearGradient>
		<path class="st45" d="M306.8,286.9c-14,7.5-29.9,11.8-46.9,12v-4c16.3-0.2,31.5-4.4,44.9-11.5L306.8,286.9z"/>
		<linearGradient id="SVGID_44_" gradientUnits="userSpaceOnUse" x1="333.8158" y1="101.6304" x2="327.6881" y2="227.2475">
			<stop  offset="0.224" style="stop-color:#869CA8"/>
			<stop  offset="0.8587" style="stop-color:#324E5F"/>
		</linearGradient>
		<path class="st46" d="M344.4,251.8c-8.7,13.9-20.9,25.6-35.3,33.8l-2-3.5c13.8-7.9,25.4-19,33.8-32.4L344.4,251.8z"/>
		<linearGradient id="SVGID_45_" gradientUnits="userSpaceOnUse" x1="356.734" y1="102.7484" x2="350.6064" y2="228.3654">
			<stop  offset="0.224" style="stop-color:#869CA8"/>
			<stop  offset="0.8587" style="stop-color:#324E5F"/>
		</linearGradient>
		<path class="st47" d="M359.3,202c-0.3,17.3-5.2,33.5-13.5,47.5l-3.5-2c7.9-13.4,12.6-28.9,12.9-45.5H359.3z"/>
		<linearGradient id="SVGID_46_" gradientUnits="userSpaceOnUse" x1="354.6533" y1="102.6469" x2="348.5256" y2="228.2639">
			<stop  offset="0.224" style="stop-color:#869CA8"/>
			<stop  offset="0.8587" style="stop-color:#324E5F"/>
		</linearGradient>
		<path class="st48" d="M359.3,199.4h-4.1c-0.1-16.6-4.6-32.3-12.4-45.8l3.5-2C354.5,165.7,359.2,182,359.3,199.4z"/>
	</g>
</g>
<g>
	<text transform="matrix(1 0 0 1 405.1709 232.0087)" class="st3 st49 st50">PredatorAiBot</text>
	<g>
		<text transform="matrix(1 0 0 1 405.1709 232.0087)" class="st51 st49 st50">PredatorAiBot</text>
	</g>
</g>
</svg>
