<?xml version="1.0" encoding="utf-8"?>
<!-- Generator: Adobe Illustrator 23.0.5, SVG Export Plug-In . SVG Version: 6.00 Build 0)  -->
<svg version="1.1" id="Layer_1" xmlns="http://www.w3.org/2000/svg" xmlns:xlink="http://www.w3.org/1999/xlink" x="0px" y="0px"
	 viewBox="0 0 1000 1000" style="enable-background:new 0 0 1000 1000;" xml:space="preserve">
<style type="text/css">
	.st0{fill:#0E2735;}
	.st1{fill:url(#SVGID_1_);}
	.st2{fill:url(#SVGID_2_);}
	.st3{fill:#FFFFFF;}
	.st4{fill:none;stroke:#000000;stroke-width:3.7321;stroke-miterlimit:10;}
	.st5{fill:url(#SVGID_3_);}
	.st6{fill:url(#SVGID_4_);}
	.st7{fill:url(#SVGID_5_);}
	.st8{fill:url(#SVGID_6_);}
	.st9{fill:url(#SVGID_7_);}
	.st10{fill:url(#SVGID_8_);}
	.st11{fill:url(#SVGID_9_);}
	.st12{fill:url(#SVGID_10_);}
	.st13{fill:url(#SVGID_11_);}
	.st14{fill:url(#SVGID_12_);}
	.st15{fill:url(#SVGID_13_);}
	.st16{fill:url(#SVGID_14_);}
	.st17{fill:url(#SVGID_15_);}
	.st18{fill:url(#SVGID_16_);}
	.st19{fill:url(#SVGID_17_);}
	.st20{fill:url(#SVGID_18_);}
	.st21{fill:url(#SVGID_19_);}
	.st22{fill:url(#SVGID_20_);}
	.st23{fill:url(#SVGID_21_);}
	.st24{fill:url(#SVGID_22_);}
	.st25{fill:url(#SVGID_23_);}
	.st26{fill:url(#SVGID_24_);}
	.st27{fill:url(#SVGID_25_);}
	.st28{fill:url(#SVGID_26_);}
	.st29{fill:url(#SVGID_27_);}
	.st30{fill:url(#SVGID_28_);}
	.st31{fill:url(#SVGID_29_);}
	.st32{fill:url(#SVGID_30_);}
	.st33{fill:url(#SVGID_31_);}
	.st34{fill:url(#SVGID_32_);}
	.st35{fill:url(#SVGID_33_);}
	.st36{fill:url(#SVGID_34_);}
	.st37{fill:url(#SVGID_35_);}
	.st38{fill:url(#SVGID_36_);}
	.st39{fill:url(#SVGID_37_);}
	.st40{fill:url(#SVGID_38_);}
	.st41{fill:url(#SVGID_39_);}
	.st42{fill:url(#SVGID_40_);}
	.st43{fill:url(#SVGID_41_);}
	.st44{fill:url(#SVGID_42_);}
	.st45{fill:url(#SVGID_43_);}
	.st46{fill:url(#SVGID_44_);}
	.st47{fill:url(#SVGID_45_);}
	.st48{fill:url(#SVGID_46_);}
	.st49{fill:url(#SVGID_47_);}
	.st50{fill:url(#SVGID_48_);}
	.st51{fill:none;stroke:#000000;stroke-miterlimit:10;}
	.st52{fill:url(#SVGID_49_);}
	.st53{fill:url(#SVGID_50_);}
	.st54{fill:url(#SVGID_51_);}
	.st55{fill:url(#SVGID_52_);}
	.st56{fill:url(#SVGID_53_);}
	.st57{fill:url(#SVGID_54_);}
	.st58{fill:url(#SVGID_55_);}
	.st59{fill:url(#SVGID_56_);}
	.st60{fill:url(#SVGID_57_);}
	.st61{fill:url(#SVGID_58_);}
	.st62{fill:url(#SVGID_59_);}
	.st63{fill:url(#SVGID_60_);}
	.st64{fill:url(#SVGID_61_);}
	.st65{fill:url(#SVGID_62_);}
	.st66{fill:url(#SVGID_63_);}
	.st67{fill:url(#SVGID_64_);}
	.st68{fill:url(#SVGID_65_);}
	.st69{fill:url(#SVGID_66_);}
	.st70{fill:url(#SVGID_67_);}
	.st71{fill:url(#SVGID_68_);}
	.st72{fill:url(#SVGID_69_);}
	.st73{fill:url(#SVGID_70_);}
	.st74{fill:url(#SVGID_71_);}
	.st75{fill:url(#SVGID_72_);}
	.st76{fill:url(#SVGID_73_);}
	.st77{fill:url(#SVGID_74_);}
	.st78{fill:url(#SVGID_75_);}
	.st79{fill:url(#SVGID_76_);}
	.st80{fill:url(#SVGID_77_);}
	.st81{fill:url(#SVGID_78_);}
	.st82{fill:url(#SVGID_79_);}
	.st83{fill:url(#SVGID_80_);}
	.st84{fill:url(#SVGID_81_);}
	.st85{fill:url(#SVGID_82_);}
	.st86{fill:url(#SVGID_83_);}
	.st87{fill:url(#SVGID_84_);}
	.st88{fill:url(#SVGID_85_);}
	.st89{fill:url(#SVGID_86_);}
	.st90{fill:url(#SVGID_87_);}
	.st91{fill:url(#SVGID_88_);}
	.st92{fill:url(#SVGID_89_);}
	.st93{fill:url(#SVGID_90_);}
	.st94{fill:url(#SVGID_91_);}
	.st95{fill:url(#SVGID_92_);}
</style>
<g>
	<ellipse class="st0" cx="500" cy="500" rx="424.7" ry="405.9"/>
	<radialGradient id="SVGID_1_" cx="500" cy="498.8431" r="357.8532" gradientUnits="userSpaceOnUse">
		<stop  offset="0.838" style="stop-color:#123345"/>
		<stop  offset="0.8739" style="stop-color:#112F40"/>
		<stop  offset="0.916" style="stop-color:#0D2532"/>
		<stop  offset="0.961" style="stop-color:#07141A"/>
		<stop  offset="1" style="stop-color:#000000"/>
	</radialGradient>
	<ellipse class="st1" cx="500" cy="498.8" rx="360.8" ry="354.9"/>
	<radialGradient id="SVGID_2_" cx="496.4025" cy="496.0068" r="375.3303" gradientUnits="userSpaceOnUse">
		<stop  offset="0" style="stop-color:#000000"/>
		<stop  offset="0.7299" style="stop-color:#000000;stop-opacity:0"/>
	</radialGradient>
	<circle class="st2" cx="496.4" cy="496" r="315.1"/>
	<g>
		<path class="st3" d="M213.7,450.6l25.7,20c0,0-35.1,73.8-25.7,161C213.7,631.6,187.7,551.6,213.7,450.6z"/>
		<path class="st3" d="M485.9,210.6L492,455c0,0-96.2-48.3-114.5-115c-2.9-10.5-5.5-21.2-7.4-32c-1.2-6.9-2.2-13.9-2.5-20.9
			c-0.2-4-0.2-8.1,0.5-12c0.2-1.1,0.4-2.1,0.7-3.2c1-3.5,3.9-6.2,6.3-8.8c1.4-1.5,2.9-3,4.4-4.5c4.1-4.1,8.5-7.9,13-11.6
			c5.8-4.7,11.9-9,18.3-12.9c7.4-4.6,15.2-8.6,23.3-12c9-3.8,18.4-6.7,27.9-8.7C469.8,211.9,477.8,210.9,485.9,210.6z"/>
		<path class="st3" d="M694.3,277.1c0,0-13.3,95-41.6,131.5c-28.3,36.5-107,69.6-124.8,90.2c-17.8,20.7-31.5,19.1-31.5,19.1
			s-13.7,1.6-31.5-19.1c-17.8-20.6-96.5-53.7-124.8-90.2c-28.3-36.5-41.6-131.5-41.6-131.5s26.2-22.1,32.2-31.1
			c6-9.1,36.1-39.1,60.3-53.6c-3.2,2.5-58.6,47.7-47.5,118.5c11.5,72.9,82,128.2,82,128.2s66.7,42.6,70.8,49.3
			c4.1-6.7,70.8-49.3,70.8-49.3s70.5-55.2,82-128.2c11.1-70.8-44.3-116-47.5-118.5C625.9,206.9,656,237,662,246
			C668.1,255.1,694.3,277.1,694.3,277.1z"/>
		<path class="st3" d="M283.8,316c0,0-2.1,25.7,10.7,57.6c0,0-24.8,29.8-37.2,62.7l-31.4-19.5C225.9,416.7,264.1,336.7,283.8,316z"
			/>
		<path class="st3" d="M306.2,395.1c0,0,1.9,18.1,8.1,24.8c0,0-9.9-2.1-15.8,6.2s-17.3,24.5-17.3,24.5s2.4-18.3,9.3-27.8
			C297.4,413.4,306.2,395.1,306.2,395.1z"/>
		<path class="st3" d="M314.3,440.6l-2.1,47.4c0,0-27.2,26.7-28.8,66.7l-30.5-23.1c0,0,14.1-40.5,14.8-56.5
			C267.6,475.1,300.3,458.2,314.3,440.6z"/>
		<path class="st3" d="M242.6,560.8l34.9,25.4c0,0-21,27.6-4.8,146.7C272.8,732.9,240.7,653.2,242.6,560.8z"/>
		<path class="st3" d="M334.1,440.6c0,0,15.5,14.1,22.9,35.7c7.4,21.7,40.7,46.2,48.1,49.5s34.5,26,36.2,38.1s2.4,133.4,9.5,148.4
			c0,0-24.9-28.7-40.2-88.1c-15.2-59.4-60.3-87.6-65.4-106.4c-5.1-18.8-3-22.6-5.4-31.6C337.4,477.3,333.5,452,334.1,440.6z"/>
		<path class="st3" d="M328.4,512.5c0,0,3.8,40.3,14.6,59.4c0,0-19.1,33.4-14.6,71.8c0,0-9.2-18.4-26-19.1v-55.3
			C302.3,569.4,317.6,521.4,328.4,512.5z"/>
		<path class="st3" d="M304.9,650.4c0,0,8,7,23,10.1c0,0-5,52.4,16.2,109.6C344.1,770,307.4,717.5,304.9,650.4z"/>
		<path class="st3" d="M506.9,210.6L500.8,455c0,0,96.2-48.3,114.5-115c2.9-10.5,5.5-21.2,7.4-32c1.2-6.9,2.2-13.9,2.5-20.9
			c0.2-4,0.2-8.1-0.5-12c-0.2-1.1-0.4-2.1-0.7-3.2c-1-3.5-3.9-6.2-6.3-8.8c-1.4-1.5-2.9-3-4.4-4.5c-4.1-4.1-8.5-7.9-13-11.6
			c-5.8-4.7-11.9-9-18.3-12.9c-7.4-4.6-15.2-8.6-23.3-12c-9-3.8-18.4-6.7-27.9-8.7C523,211.9,515,210.9,506.9,210.6z"/>
		<path class="st3" d="M709,316c0,0,2.1,25.7-10.7,57.6c0,0,24.8,29.8,37.2,62.7l31.4-19.5C766.9,416.7,728.7,336.7,709,316z"/>
		<path class="st3" d="M779.1,450.6l-25.7,20c0,0,35.1,73.8,25.7,161C779.1,631.6,805.1,551.6,779.1,450.6z"/>
		<path class="st3" d="M686.6,395.1c0,0-1.9,18.1-8.1,24.8c0,0,9.9-2.1,15.8,6.2s17.3,24.5,17.3,24.5s-2.4-18.3-9.3-27.8
			S686.6,395.1,686.6,395.1z"/>
		<path class="st3" d="M678.5,440.6l2.1,47.4c0,0,27.2,26.7,28.8,66.7l30.5-23.1c0,0-14.1-40.5-14.8-56.5
			C725.2,475.1,692.5,458.2,678.5,440.6z"/>
		<path class="st3" d="M750.2,560.8l-34.9,25.4c0,0,21,27.6,4.8,146.7C720,732.9,752.1,653.2,750.2,560.8z"/>
		<path class="st3" d="M658.7,440.6c0,0-15.5,14.1-22.9,35.7c-7.4,21.7-40.7,46.2-48.1,49.5c-7.4,3.3-34.5,26-36.2,38.1
			c-1.7,12.1-2.4,133.4-9.5,148.4c0,0,24.9-28.7,40.2-88.1c15.2-59.4,60.3-87.6,65.4-106.4c5.1-18.8,3-22.6,5.4-31.6
			C655.4,477.3,659.3,452,658.7,440.6z"/>
		<path class="st3" d="M664.4,512.5c0,0-3.8,40.3-14.6,59.4c0,0,19.1,33.4,14.6,71.8c0,0,9.2-18.4,26-19.1v-55.3
			C690.5,569.4,675.2,521.4,664.4,512.5z"/>
		<path class="st3" d="M687.9,650.4c0,0-8,7-23,10.1c0,0,5,52.4-16.2,109.6C648.7,770,685.4,717.5,687.9,650.4z"/>
		<path class="st3" d="M530.8,539.9c-0.7,1-5.8,8.4-6.5,18.2c-0.9,10.6-6.6,166.4-6.6,166.4h-42.5c0,0-5.7-155.8-6.6-166.4
			c-0.7-9.9-5.9-17.2-6.6-18.2c7.3,9.1,34.4,6.9,34.4,6.9S523.5,549,530.8,539.9z"/>
	</g>
	<g>
		<path class="st3" d="M316.9,191.3c-51.9,30.1-95.4,72.7-126.3,123.5l-13.1-7.6c32.3-53.1,77.7-97.5,131.9-129L316.9,191.3z"/>
		<path class="st3" d="M495.2,127.3v14.9c-61.5,0.7-119.4,16.8-169.8,44.3l-7.5-12.9C370.6,144.7,431,128,495.2,127.3z"/>
		<path class="st3" d="M682.3,173.5l-7.5,12.9c-50.4-27.5-108.3-43.5-169.8-44.3v-14.9C569.3,128,629.7,144.7,682.3,173.5z"/>
		<path class="st3" d="M822.7,307.3l-13.1,7.6c-30.9-50.8-74.4-93.4-126.3-123.5l7.5-13C745,209.7,790.4,254.2,822.7,307.3z"/>
		<path class="st3" d="M185.7,323.3c-29.1,50.7-45.8,109.2-46.2,171.4h-15.2c0.4-65,17.9-126.1,48.2-179L185.7,323.3z"/>
		<path class="st3" d="M187.8,674.7l-13.1,7.6c-30.9-52.5-49-113.1-50.3-177.8h15.2C140.8,566.4,158.2,624.4,187.8,674.7z"/>
		<path class="st3" d="M319.1,804.2l-7.5,13c-53.9-30.8-99.2-74.4-131.8-126.5l13.1-7.6C224.1,733,267.5,774.7,319.1,804.2z"/>
		<path class="st3" d="M495.2,852.1V867c-63.4-0.7-123-17-175.1-45l7.5-12.9C377.5,835.8,434.6,851.3,495.2,852.1z"/>
		<path class="st3" d="M680.1,821.9C628,850,568.4,866.2,505,867v-14.9c60.7-0.7,117.7-16.3,167.6-43.1L680.1,821.9z"/>
		<path class="st3" d="M820.5,690.6c-32.6,52.2-77.9,95.7-131.8,126.5l-7.5-13c51.5-29.5,95-71.2,126.2-121.1L820.5,690.6z"/>
		<path class="st3" d="M875.9,504.5c-1.3,64.7-19.4,125.3-50.3,177.8l-13.1-7.6c29.6-50.2,47-108.3,48.3-170.2H875.9z"/>
		<path class="st3" d="M875.9,494.7h-15.2c-0.4-62.3-17.1-120.7-46.2-171.4l13.1-7.6C858,368.6,875.5,429.7,875.9,494.7z"/>
	</g>
	<path class="st4" d="M461.9,547.4c0,0,0.1,0.1,0.1,0.1"/>
	<g>
		<linearGradient id="SVGID_3_" gradientUnits="userSpaceOnUse" x1="229.0966" y1="739.3749" x2="209.0864" y2="204.8168">
			<stop  offset="0" style="stop-color:#BD2025"/>
			<stop  offset="1" style="stop-color:#F2808E"/>
		</linearGradient>
		<path class="st5" d="M213.7,458.2l25.7,20c0,0-35.1,73.8-25.7,161C213.7,639.2,187.7,559.2,213.7,458.2z"/>
		<linearGradient id="SVGID_4_" gradientUnits="userSpaceOnUse" x1="444.4597" y1="731.3131" x2="424.4495" y2="196.755">
			<stop  offset="0" style="stop-color:#BD2025"/>
			<stop  offset="1" style="stop-color:#F2808E"/>
		</linearGradient>
		<path class="st6" d="M485.9,218.2l6.1,244.4c0,0-96.2-48.3-114.5-115c-2.9-10.5-5.5-21.2-7.4-32c-1.2-6.9-2.2-13.9-2.5-20.9
			c-0.2-4-0.2-8.1,0.5-12c0.2-1.1,0.4-2.1,0.7-3.2c1-3.5,3.9-6.2,6.3-8.8c1.4-1.5,2.9-3,4.4-4.5c4.1-4.1,8.5-7.9,13-11.6
			c5.8-4.7,11.9-9,18.3-12.9c7.4-4.6,15.2-8.6,23.3-12c9-3.8,18.4-6.7,27.9-8.7C469.8,219.5,477.8,218.5,485.9,218.2z"/>
		<linearGradient id="SVGID_5_" gradientUnits="userSpaceOnUse" x1="513.0219" y1="728.7466" x2="493.0117" y2="194.1885">
			<stop  offset="0" style="stop-color:#BD2025"/>
			<stop  offset="1" style="stop-color:#F2808E"/>
		</linearGradient>
		<path class="st7" d="M694.3,284.8c0,0-13.3,95-41.6,131.5c-28.3,36.5-107,69.6-124.8,90.2c-17.8,20.7-31.5,19.1-31.5,19.1
			s-13.7,1.6-31.5-19.1c-17.8-20.6-96.5-53.7-124.8-90.2c-28.3-36.5-41.6-131.5-41.6-131.5s26.2-22.1,32.2-31.1
			c6-9.1,36.1-39.1,60.3-53.6c-3.2,2.5-58.6,47.7-47.5,118.5c11.5,72.9,82,128.2,82,128.2s66.7,42.6,70.8,49.3
			c4.1-6.7,70.8-49.3,70.8-49.3s70.5-55.2,82-128.2c11.1-70.8-44.3-116-47.5-118.5c24.3,14.4,54.3,44.5,60.3,53.6
			C668.1,262.7,694.3,284.8,694.3,284.8z"/>
		<linearGradient id="SVGID_6_" gradientUnits="userSpaceOnUse" x1="272.788" y1="737.7393" x2="252.7778" y2="203.1812">
			<stop  offset="0" style="stop-color:#BD2025"/>
			<stop  offset="1" style="stop-color:#F2808E"/>
		</linearGradient>
		<path class="st8" d="M283.8,323.6c0,0-2.1,25.7,10.7,57.6c0,0-24.8,29.8-37.2,62.7l-31.4-19.5
			C225.9,424.4,264.1,344.3,283.8,323.6z"/>
		<linearGradient id="SVGID_7_" gradientUnits="userSpaceOnUse" x1="308.7586" y1="736.3929" x2="288.7484" y2="201.8347">
			<stop  offset="0" style="stop-color:#BD2025"/>
			<stop  offset="1" style="stop-color:#F2808E"/>
		</linearGradient>
		<path class="st9" d="M306.2,402.7c0,0,1.9,18.1,8.1,24.8c0,0-9.9-2.1-15.8,6.2c-5.9,8.3-17.3,24.5-17.3,24.5s2.4-18.3,9.3-27.8
			C297.4,421,306.2,402.7,306.2,402.7z"/>
		<linearGradient id="SVGID_8_" gradientUnits="userSpaceOnUse" x1="292.7034" y1="736.9938" x2="272.6932" y2="202.4357">
			<stop  offset="0" style="stop-color:#BD2025"/>
			<stop  offset="1" style="stop-color:#F2808E"/>
		</linearGradient>
		<path class="st10" d="M314.3,448.2l-2.1,47.4c0,0-27.2,26.7-28.8,66.7l-30.5-23.1c0,0,14.1-40.5,14.8-56.5
			C267.6,482.7,300.3,465.8,314.3,448.2z"/>
		<linearGradient id="SVGID_9_" gradientUnits="userSpaceOnUse" x1="265.6345" y1="738.0071" x2="245.6243" y2="203.449">
			<stop  offset="0" style="stop-color:#BD2025"/>
			<stop  offset="1" style="stop-color:#F2808E"/>
		</linearGradient>
		<path class="st11" d="M242.6,568.4l34.9,25.4c0,0-21,27.6-4.8,146.7C272.8,740.6,240.7,660.8,242.6,568.4z"/>
		<linearGradient id="SVGID_10_" gradientUnits="userSpaceOnUse" x1="397.9268" y1="733.055" x2="377.9166" y2="198.4969">
			<stop  offset="0" style="stop-color:#BD2025"/>
			<stop  offset="1" style="stop-color:#F2808E"/>
		</linearGradient>
		<path class="st12" d="M334.1,448.2c0,0,15.5,14.1,22.9,35.7c7.4,21.7,40.7,46.2,48.1,49.5s34.5,26,36.2,38.1s2.4,133.4,9.5,148.4
			c0,0-24.9-28.7-40.2-88.1c-15.2-59.4-60.3-87.6-65.4-106.4c-5.1-18.8-3-22.6-5.4-31.6C337.4,484.9,333.5,459.6,334.1,448.2z"/>
		<linearGradient id="SVGID_11_" gradientUnits="userSpaceOnUse" x1="327.5221" y1="735.6905" x2="307.5119" y2="201.1324">
			<stop  offset="0" style="stop-color:#BD2025"/>
			<stop  offset="1" style="stop-color:#F2808E"/>
		</linearGradient>
		<path class="st13" d="M328.4,520.1c0,0,3.8,40.3,14.6,59.4c0,0-19.1,33.4-14.6,71.8c0,0-9.2-18.4-26-19.1V577
			C302.3,577,317.6,529,328.4,520.1z"/>
		<linearGradient id="SVGID_12_" gradientUnits="userSpaceOnUse" x1="325.1622" y1="735.7788" x2="305.152" y2="201.2207">
			<stop  offset="0" style="stop-color:#BD2025"/>
			<stop  offset="1" style="stop-color:#F2808E"/>
		</linearGradient>
		<path class="st14" d="M304.9,658c0,0,8,7,23,10.1c0,0-5,52.4,16.2,109.6C344.1,777.6,307.4,725.1,304.9,658z"/>
		<linearGradient id="SVGID_13_" gradientUnits="userSpaceOnUse" x1="576.2409" y1="726.3801" x2="556.2307" y2="191.8221">
			<stop  offset="0" style="stop-color:#BD2025"/>
			<stop  offset="1" style="stop-color:#F2808E"/>
		</linearGradient>
		<path class="st15" d="M506.9,218.2l-6.1,244.4c0,0,96.2-48.3,114.5-115c2.9-10.5,5.5-21.2,7.4-32c1.2-6.9,2.2-13.9,2.5-20.9
			c0.2-4,0.2-8.1-0.5-12c-0.2-1.1-0.4-2.1-0.7-3.2c-1-3.5-3.9-6.2-6.3-8.8c-1.4-1.5-2.9-3-4.4-4.5c-4.1-4.1-8.5-7.9-13-11.6
			c-5.8-4.7-11.9-9-18.3-12.9c-7.4-4.6-15.2-8.6-23.3-12c-9-3.8-18.4-6.7-27.9-8.7C523,219.5,515,218.5,506.9,218.2z"/>
		<linearGradient id="SVGID_14_" gradientUnits="userSpaceOnUse" x1="744.4313" y1="720.0842" x2="724.4211" y2="185.5262">
			<stop  offset="0" style="stop-color:#BD2025"/>
			<stop  offset="1" style="stop-color:#F2808E"/>
		</linearGradient>
		<path class="st16" d="M709,323.6c0,0,2.1,25.7-10.7,57.6c0,0,24.8,29.8,37.2,62.7l31.4-19.5C766.9,424.4,728.7,344.3,709,323.6z"
			/>
		<linearGradient id="SVGID_15_" gradientUnits="userSpaceOnUse" x1="779.8016" y1="718.7603" x2="759.7914" y2="184.2021">
			<stop  offset="0" style="stop-color:#BD2025"/>
			<stop  offset="1" style="stop-color:#F2808E"/>
		</linearGradient>
		<path class="st17" d="M779.1,458.2l-25.7,20c0,0,35.1,73.8,25.7,161C779.1,639.2,805.1,559.2,779.1,458.2z"/>
		<linearGradient id="SVGID_16_" gradientUnits="userSpaceOnUse" x1="705.4686" y1="721.5427" x2="685.4584" y2="186.9846">
			<stop  offset="0" style="stop-color:#BD2025"/>
			<stop  offset="1" style="stop-color:#F2808E"/>
		</linearGradient>
		<path class="st18" d="M686.6,402.7c0,0-1.9,18.1-8.1,24.8c0,0,9.9-2.1,15.8,6.2c5.9,8.3,17.3,24.5,17.3,24.5s-2.4-18.3-9.3-27.8
			S686.6,402.7,686.6,402.7z"/>
		<linearGradient id="SVGID_17_" gradientUnits="userSpaceOnUse" x1="717.7216" y1="721.0841" x2="697.7114" y2="186.526">
			<stop  offset="0" style="stop-color:#BD2025"/>
			<stop  offset="1" style="stop-color:#F2808E"/>
		</linearGradient>
		<path class="st19" d="M678.5,448.2l2.1,47.4c0,0,27.2,26.7,28.8,66.7l30.5-23.1c0,0-14.1-40.5-14.8-56.5
			C725.2,482.7,692.5,465.8,678.5,448.2z"/>
		<linearGradient id="SVGID_18_" gradientUnits="userSpaceOnUse" x1="737.5609" y1="720.3414" x2="717.5507" y2="185.7833">
			<stop  offset="0" style="stop-color:#BD2025"/>
			<stop  offset="1" style="stop-color:#F2808E"/>
		</linearGradient>
		<path class="st20" d="M750.2,568.4l-34.9,25.4c0,0,21,27.6,4.8,146.7C720,740.6,752.1,660.8,750.2,568.4z"/>
		<linearGradient id="SVGID_19_" gradientUnits="userSpaceOnUse" x1="605.6327" y1="725.2799" x2="585.6225" y2="190.7218">
			<stop  offset="0" style="stop-color:#BD2025"/>
			<stop  offset="1" style="stop-color:#F2808E"/>
		</linearGradient>
		<path class="st21" d="M658.7,448.2c0,0-15.5,14.1-22.9,35.7c-7.4,21.7-40.7,46.2-48.1,49.5c-7.4,3.3-34.5,26-36.2,38.1
			c-1.7,12.1-2.4,133.4-9.5,148.4c0,0,24.9-28.7,40.2-88.1c15.2-59.4,60.3-87.6,65.4-106.4c5.1-18.8,3-22.6,5.4-31.6
			C655.4,484.9,659.3,459.6,658.7,448.2z"/>
		<linearGradient id="SVGID_20_" gradientUnits="userSpaceOnUse" x1="675.5475" y1="722.6628" x2="655.5373" y2="188.1047">
			<stop  offset="0" style="stop-color:#BD2025"/>
			<stop  offset="1" style="stop-color:#F2808E"/>
		</linearGradient>
		<path class="st22" d="M664.4,520.1c0,0-3.8,40.3-14.6,59.4c0,0,19.1,33.4,14.6,71.8c0,0,9.2-18.4,26-19.1V577
			C690.5,577,675.2,529,664.4,520.1z"/>
		<linearGradient id="SVGID_21_" gradientUnits="userSpaceOnUse" x1="668.5071" y1="722.9263" x2="648.4969" y2="188.3682">
			<stop  offset="0" style="stop-color:#BD2025"/>
			<stop  offset="1" style="stop-color:#F2808E"/>
		</linearGradient>
		<path class="st23" d="M687.9,658c0,0-8,7-23,10.1c0,0,5,52.4-16.2,109.6C648.7,777.6,685.4,725.1,687.9,658z"/>
		<linearGradient id="SVGID_22_" gradientUnits="userSpaceOnUse" x1="503.1852" y1="729.1149" x2="483.175" y2="194.5567">
			<stop  offset="0" style="stop-color:#BD2025"/>
			<stop  offset="1" style="stop-color:#F2808E"/>
		</linearGradient>
		<path class="st24" d="M530.8,547.5c-0.7,1-5.8,8.4-6.5,18.2c-0.9,10.6-6.6,166.4-6.6,166.4h-42.5c0,0-5.7-155.8-6.6-166.4
			c-0.7-9.9-5.9-17.2-6.6-18.2c7.3,9.1,34.4,6.9,34.4,6.9S523.5,556.6,530.8,547.5z"/>
	</g>
	<path class="st4" d="M530.8,547.5c0,0,0.1-0.1,0.1-0.1"/>
	<g>
		<linearGradient id="SVGID_23_" gradientUnits="userSpaceOnUse" x1="272.2469" y1="923.1686" x2="200.7819" y2="-91.6342">
			<stop  offset="0" style="stop-color:#BD2025"/>
			<stop  offset="1" style="stop-color:#F2808E"/>
		</linearGradient>
		<path class="st25" d="M309.5,182c-54.2,31.3-99.6,75.7-131.9,128.6l-39.5-22.8c37.3-58.1,89.5-106.5,151.4-140.4L309.5,182z"/>
		<linearGradient id="SVGID_24_" gradientUnits="userSpaceOnUse" x1="452.4596" y1="910.4775" x2="380.9946" y2="-104.3253">
			<stop  offset="0" style="stop-color:#BD2025"/>
			<stop  offset="1" style="stop-color:#F2808E"/>
		</linearGradient>
		<path class="st26" d="M495.2,94.1v37c-64.3,0.7-124.7,17.4-177.3,46.1l-19.9-34.4C356.9,112.4,423.9,94.8,495.2,94.1z"/>
		<linearGradient id="SVGID_25_" gradientUnits="userSpaceOnUse" x1="657.0481" y1="896.0699" x2="585.5831" y2="-118.7329">
			<stop  offset="0" style="stop-color:#BD2025"/>
			<stop  offset="1" style="stop-color:#F2808E"/>
		</linearGradient>
		<path class="st27" d="M702.2,142.8l-19.9,34.4c-52.6-28.7-113-45.4-177.3-46.1v-37C576.3,94.8,643.4,112.4,702.2,142.8z"/>
		<linearGradient id="SVGID_26_" gradientUnits="userSpaceOnUse" x1="822.2375" y1="884.4368" x2="750.7726" y2="-130.366">
			<stop  offset="0" style="stop-color:#BD2025"/>
			<stop  offset="1" style="stop-color:#F2808E"/>
		</linearGradient>
		<path class="st28" d="M862.2,287.8l-39.5,22.8c-32.3-53-77.7-97.3-131.9-128.6l20-34.5C772.7,181.3,824.9,229.7,862.2,287.8z"/>
		<linearGradient id="SVGID_27_" gradientUnits="userSpaceOnUse" x1="160.8852" y1="931.0109" x2="89.4202" y2="-83.7919">
			<stop  offset="0" style="stop-color:#BD2025"/>
			<stop  offset="1" style="stop-color:#F2808E"/>
		</linearGradient>
		<path class="st29" d="M172.6,319c-30.3,52.8-47.8,113.7-48.2,178.6H75.6c0.4-73.9,21.5-143.1,58-202.6l-0.6,1.1L172.6,319z"/>
		<linearGradient id="SVGID_28_" gradientUnits="userSpaceOnUse" x1="148.5414" y1="931.8802" x2="77.0764" y2="-82.9226">
			<stop  offset="0" style="stop-color:#BD2025"/>
			<stop  offset="1" style="stop-color:#F2808E"/>
		</linearGradient>
		<path class="st30" d="M174.7,684.7l-39.6,22.8C98.5,648.8,77,580.4,75.6,507.4h48.8C125.7,571.9,143.8,632.3,174.7,684.7z"/>
		<linearGradient id="SVGID_29_" gradientUnits="userSpaceOnUse" x1="237.149" y1="925.6403" x2="165.684" y2="-89.1626">
			<stop  offset="0" style="stop-color:#BD2025"/>
			<stop  offset="1" style="stop-color:#F2808E"/>
		</linearGradient>
		<path class="st31" d="M311.6,819.3l-19.9,34.5h0C230,820.5,178,773,140.4,715.8l39.4-22.7C212.4,745.1,257.7,788.6,311.6,819.3z"
			/>
		<linearGradient id="SVGID_30_" gradientUnits="userSpaceOnUse" x1="401.3353" y1="914.0778" x2="329.8703" y2="-100.725">
			<stop  offset="0" style="stop-color:#BD2025"/>
			<stop  offset="1" style="stop-color:#F2808E"/>
		</linearGradient>
		<path class="st32" d="M495.2,869v37c-70.4-0.7-136.7-17.9-194.9-47.6l19.8-34.3C372.2,852,431.8,868.2,495.2,869z"/>
		<linearGradient id="SVGID_31_" gradientUnits="userSpaceOnUse" x1="603.7311" y1="899.8015" x2="532.2661" y2="-115.0013">
			<stop  offset="0" style="stop-color:#BD2025"/>
			<stop  offset="1" style="stop-color:#F2808E"/>
		</linearGradient>
		<path class="st33" d="M699.9,858.3c-58.2,29.7-124.5,46.9-194.9,47.6v-37c63.4-0.7,123-16.9,175.1-44.9L699.9,858.3z"/>
		<linearGradient id="SVGID_32_" gradientUnits="userSpaceOnUse" x1="782.6833" y1="887.2224" x2="711.2183" y2="-127.5805">
			<stop  offset="0" style="stop-color:#BD2025"/>
			<stop  offset="1" style="stop-color:#F2808E"/>
		</linearGradient>
		<path class="st34" d="M859.8,715.8c-37.5,57.2-89.6,104.7-151.2,138h0l-19.9-34.5c53.9-30.7,99.2-74.2,131.8-126.2L859.8,715.8z"
			/>
		<linearGradient id="SVGID_33_" gradientUnits="userSpaceOnUse" x1="895.0629" y1="879.3083" x2="823.5978" y2="-135.4945">
			<stop  offset="0" style="stop-color:#BD2025"/>
			<stop  offset="1" style="stop-color:#F2808E"/>
		</linearGradient>
		<path class="st35" d="M924.7,507.4c-1.3,73.1-22.9,141.4-59.5,200.2l-39.6-22.8c30.9-52.4,49-112.8,50.3-177.3H924.7z"/>
		<linearGradient id="SVGID_34_" gradientUnits="userSpaceOnUse" x1="909.7076" y1="878.277" x2="838.2427" y2="-136.5258">
			<stop  offset="0" style="stop-color:#BD2025"/>
			<stop  offset="1" style="stop-color:#F2808E"/>
		</linearGradient>
		<path class="st36" d="M924.7,497.6h-48.8c-0.4-64.9-17.9-125.8-48.2-178.6l39.6-22.9l-0.6-1.1
			C903.2,354.5,924.3,423.7,924.7,497.6z"/>
	</g>
	<g>
		<linearGradient id="SVGID_35_" gradientUnits="userSpaceOnUse" x1="254.3589" y1="107.0213" x2="231.4901" y2="575.8317">
			<stop  offset="0.224" style="stop-color:#869CA8"/>
			<stop  offset="0.8587" style="stop-color:#324E5F"/>
		</linearGradient>
		<path class="st37" d="M316.9,194.9c-51.9,30-95.4,72.5-126.3,123.2l-13.1-7.5c32.3-53,77.7-97.3,131.9-128.6L316.9,194.9z"/>
		<linearGradient id="SVGID_36_" gradientUnits="userSpaceOnUse" x1="408.9008" y1="114.56" x2="386.032" y2="583.3703">
			<stop  offset="0.224" style="stop-color:#869CA8"/>
			<stop  offset="0.8587" style="stop-color:#324E5F"/>
		</linearGradient>
		<path class="st38" d="M495.2,131v14.9c-61.5,0.7-119.4,16.7-169.8,44.2l-7.5-12.9C370.6,148.4,431,131.8,495.2,131z"/>
		<linearGradient id="SVGID_37_" gradientUnits="userSpaceOnUse" x1="595.1462" y1="123.6451" x2="572.2775" y2="592.4554">
			<stop  offset="0.224" style="stop-color:#869CA8"/>
			<stop  offset="0.8587" style="stop-color:#324E5F"/>
		</linearGradient>
		<path class="st39" d="M682.3,177.2l-7.5,12.9c-50.4-27.5-108.3-43.4-169.8-44.2V131C569.3,131.8,629.7,148.4,682.3,177.2z"/>
		<linearGradient id="SVGID_38_" gradientUnits="userSpaceOnUse" x1="758.9272" y1="131.6344" x2="736.0583" y2="600.4448">
			<stop  offset="0.224" style="stop-color:#869CA8"/>
			<stop  offset="0.8587" style="stop-color:#324E5F"/>
		</linearGradient>
		<path class="st40" d="M822.7,310.6l-13.1,7.5c-30.9-50.7-74.4-93.2-126.3-123.2l7.5-13C745,213.3,790.4,257.6,822.7,310.6z"/>
		<linearGradient id="SVGID_39_" gradientUnits="userSpaceOnUse" x1="169.9279" y1="102.9027" x2="147.0591" y2="571.7131">
			<stop  offset="0.224" style="stop-color:#869CA8"/>
			<stop  offset="0.8587" style="stop-color:#324E5F"/>
		</linearGradient>
		<path class="st41" d="M185.7,326.6c-29.1,50.6-45.8,108.9-46.2,171h-15.2c0.4-64.9,17.9-125.8,48.2-178.6L185.7,326.6z"/>
		<linearGradient id="SVGID_40_" gradientUnits="userSpaceOnUse" x1="179.9408" y1="103.3912" x2="157.072" y2="572.2015">
			<stop  offset="0.224" style="stop-color:#869CA8"/>
			<stop  offset="0.8587" style="stop-color:#324E5F"/>
		</linearGradient>
		<path class="st42" d="M187.8,677.1l-13.1,7.6c-30.9-52.4-49-112.8-50.3-177.3h15.2C140.8,569.1,158.2,627,187.8,677.1z"/>
		<linearGradient id="SVGID_41_" gradientUnits="userSpaceOnUse" x1="280.7205" y1="108.3073" x2="257.8517" y2="577.1176">
			<stop  offset="0.224" style="stop-color:#869CA8"/>
			<stop  offset="0.8587" style="stop-color:#324E5F"/>
		</linearGradient>
		<path class="st43" d="M319.1,806.3l-7.5,13c-53.9-30.7-99.2-74.2-131.8-126.2l13.1-7.5C224.1,735.3,267.5,776.9,319.1,806.3z"/>
		<linearGradient id="SVGID_42_" gradientUnits="userSpaceOnUse" x1="443.3132" y1="116.2386" x2="420.4445" y2="585.049">
			<stop  offset="0.224" style="stop-color:#869CA8"/>
			<stop  offset="0.8587" style="stop-color:#324E5F"/>
		</linearGradient>
		<path class="st44" d="M495.2,854.1V869c-63.4-0.7-123-16.9-175.1-44.9l7.5-12.9C377.5,837.8,434.6,853.4,495.2,854.1z"/>
		<linearGradient id="SVGID_43_" gradientUnits="userSpaceOnUse" x1="627.3991" y1="125.2184" x2="604.5303" y2="594.0287">
			<stop  offset="0.224" style="stop-color:#869CA8"/>
			<stop  offset="0.8587" style="stop-color:#324E5F"/>
		</linearGradient>
		<path class="st45" d="M680.1,824C628,852,568.4,868.2,505,869v-14.9c60.7-0.7,117.7-16.3,167.6-43L680.1,824z"/>
		<linearGradient id="SVGID_44_" gradientUnits="userSpaceOnUse" x1="780.9327" y1="132.7079" x2="758.0639" y2="601.5182">
			<stop  offset="0.224" style="stop-color:#869CA8"/>
			<stop  offset="0.8587" style="stop-color:#324E5F"/>
		</linearGradient>
		<path class="st46" d="M820.5,693.1c-32.6,52-77.9,95.5-131.8,126.2l-7.5-13c51.5-29.4,95-71,126.2-120.8L820.5,693.1z"/>
		<linearGradient id="SVGID_45_" gradientUnits="userSpaceOnUse" x1="866.4648" y1="136.8802" x2="843.5961" y2="605.6905">
			<stop  offset="0.224" style="stop-color:#869CA8"/>
			<stop  offset="0.8587" style="stop-color:#324E5F"/>
		</linearGradient>
		<path class="st47" d="M875.9,507.4c-1.3,64.5-19.4,125-50.3,177.3l-13.1-7.6c29.6-50.1,47-108,48.3-169.8H875.9z"/>
		<linearGradient id="SVGID_46_" gradientUnits="userSpaceOnUse" x1="858.6994" y1="136.5014" x2="835.8306" y2="605.3116">
			<stop  offset="0.224" style="stop-color:#869CA8"/>
			<stop  offset="0.8587" style="stop-color:#324E5F"/>
		</linearGradient>
		<path class="st48" d="M875.9,497.6h-15.2c-0.4-62.1-17.1-120.4-46.2-171l13.1-7.6C858,371.8,875.5,432.7,875.9,497.6z"/>
	</g>
</g>
</svg>
